<?xml version="1.0" encoding="UTF-8"?>
<svg id="Layer_2" data-name="Layer 2" xmlns="http://www.w3.org/2000/svg" viewBox="0 0 221.96 231.92">
  <defs>
    <style>
      .cls-1 {
        fill: #fcfcfc;
      }
    </style>
  </defs>
  <g id="Layer_2-2" data-name="Layer 2">
    <path class="cls-1" d="M34.33,231.92l29.11-54.75,64.63,28.41,59.66,26.33h0s14.94,0,14.94,0c10.82-1.05,19.28-10.17,19.28-21.27,0-3.28-.74-6.39-2.06-9.17l-1.05-1.95-60-110.97-23.67,44.52,20.18,37.95c-.75-.29-1.49-.61-2.21-.99l-69.58-30.71,3.33-6.25,24.15-45.41,23.47-44.14L110.98,0l-23.47,43.41-24.35,45.03L2.92,199.87l-.71,1.31c-1.42,2.86-2.21,6.07-2.21,9.47,0,11.1,8.46,20.22,19.28,21.27h15.05Z"/>
  </g>
</svg>