<?xml version="1.0" encoding="UTF-8"?>
<svg id="Layer_2" data-name="Layer 2" xmlns="http://www.w3.org/2000/svg" viewBox="0 0 754.19 181.81">
  <g id="wendy_tagline_text">
    <g>
      <path d="M297.5,150.24v-16.65h3.17v16.65h-3.17ZM299.08,144.74v-2.46h7.72c1.15,0,2.03-.27,2.65-.81.62-.54.93-1.3.93-2.28v-.02c0-.98-.31-1.75-.93-2.28-.62-.54-1.51-.81-2.65-.81h-7.72v-2.49h8.22c1.28,0,2.4.23,3.35.69s1.68,1.1,2.19,1.94c.52.83.77,1.81.77,2.91v.02c0,1.12-.26,2.1-.78,2.94-.52.83-1.25,1.49-2.19,1.96-.94.47-2.06.7-3.34.7h-8.22Z"/>
      <path d="M315.83,150.24v-16.65h3.18v6.86h11.62v-6.86h3.17v16.65h-3.17v-7.19h-11.62v7.19h-3.18Z"/>
      <path d="M343.42,150.24v-6.39l-7.82-10.25h3.63l5.73,7.6h.07l5.76-7.6h3.62l-7.81,10.25v6.39h-3.18Z"/>
      <path d="M363.32,150.55c-1.78,0-3.31-.19-4.59-.57s-2.3-.94-3.03-1.68-1.18-1.63-1.31-2.68l-.02-.15h3.14l.02.13c.15.53.46.98.95,1.35s1.14.65,1.98.83c.83.18,1.84.28,3.02.28,1.03,0,1.91-.1,2.63-.29.72-.2,1.27-.49,1.66-.88.38-.39.57-.84.57-1.37h0c0-.7-.27-1.21-.81-1.55-.54-.34-1.47-.58-2.8-.71l-4-.35c-2.01-.21-3.5-.69-4.47-1.45-.97-.76-1.46-1.81-1.46-3.14v-.02c0-1.03.32-1.92.96-2.66s1.55-1.33,2.73-1.74c1.18-.41,2.58-.62,4.19-.62s3.11.19,4.33.58c1.22.39,2.17.95,2.88,1.69s1.13,1.63,1.29,2.68v.13s-3.1,0-3.1,0l-.03-.1c-.16-.55-.46-1.01-.9-1.38-.44-.37-1.03-.64-1.76-.83s-1.64-.28-2.7-.28c-1,0-1.85.09-2.55.28-.7.19-1.23.46-1.59.82-.36.36-.54.79-.54,1.3h0c0,.64.27,1.12.82,1.46.55.33,1.44.57,2.68.71l4.04.33c1.38.15,2.52.42,3.4.8.88.38,1.54.88,1.97,1.52s.65,1.41.65,2.32h0c0,1.11-.32,2.05-.97,2.83-.65.78-1.58,1.37-2.8,1.79s-2.7.62-4.44.62Z"/>
      <path d="M373.8,150.24v-16.65h3.18v16.65h-3.18Z"/>
      <path d="M389.38,150.55c-2.05,0-3.82-.35-5.32-1.06-1.5-.71-2.65-1.71-3.45-2.99-.8-1.29-1.21-2.82-1.21-4.58h0c0-1.78.4-3.31,1.21-4.59.8-1.28,1.95-2.28,3.45-2.98s3.27-1.06,5.32-1.06c1.72,0,3.25.26,4.58.78,1.33.52,2.42,1.26,3.26,2.21.85.95,1.38,2.08,1.59,3.37l.02.14h-3.17l-.05-.14c-.25-.8-.65-1.48-1.21-2.04s-1.26-.98-2.1-1.27c-.84-.29-1.81-.43-2.91-.43-1.39,0-2.59.25-3.6.74-1.01.49-1.79,1.18-2.34,2.08-.55.89-.82,1.95-.82,3.17h0c0,1.23.27,2.28.82,3.18.55.9,1.33,1.6,2.34,2.09s2.21.74,3.6.74c1.08,0,2.05-.15,2.88-.45s1.54-.73,2.12-1.3c.57-.57.98-1.26,1.23-2.09l.02-.09h3.18l-.02.13c-.22,1.31-.75,2.45-1.59,3.41-.85.96-1.94,1.71-3.28,2.23-1.34.53-2.86.79-4.57.79Z"/>
      <path d="M399.59,150.24l8.1-16.65h2.8v2.8h-.96l-6.57,13.84h-3.37ZM403.34,145.92l1.07-2.33h10.24l1.05,2.33h-12.37ZM416.14,150.24l-6.55-13.84v-2.8h1.82l8.1,16.65h-3.37Z"/>
      <path d="M421.31,150.24v-16.65h3.18v14.06h10.57v2.58h-13.75Z"/>
      <path d="M442.02,150.24l8.1-16.65h2.8v2.8h-.96l-6.58,13.84h-3.37ZM445.76,145.92l1.07-2.33h10.24l1.05,2.33h-12.37ZM458.57,150.24l-6.55-13.84v-2.8h1.82l8.1,16.65h-3.37Z"/>
      <path d="M463.74,150.24v-16.65h3.18v16.65h-3.18Z"/>
      <path d="M485.46,150.55c-2.05,0-3.84-.35-5.36-1.06-1.52-.7-2.7-1.7-3.53-3s-1.25-2.82-1.25-4.57v-.02c0-1.75.42-3.28,1.25-4.57s2.01-2.29,3.53-2.99c1.52-.7,3.31-1.06,5.36-1.06s3.82.35,5.34,1.06c1.52.71,2.7,1.71,3.54,2.99.84,1.29,1.26,2.81,1.26,4.56v.02c0,1.75-.42,3.28-1.26,4.57-.84,1.29-2.02,2.29-3.54,3-1.52.71-3.3,1.06-5.35,1.06ZM485.46,147.92c1.39,0,2.6-.24,3.64-.73s1.83-1.18,2.4-2.08c.57-.9.85-1.96.85-3.18v-.02c0-1.22-.28-2.28-.85-3.18-.57-.9-1.37-1.59-2.41-2.08-1.03-.49-2.24-.73-3.63-.73s-2.62.24-3.65.73c-1.03.49-1.83,1.18-2.4,2.08-.57.9-.86,1.96-.86,3.18v.02c0,1.22.29,2.28.86,3.18.57.9,1.38,1.59,2.4,2.08,1.03.49,2.25.73,3.65.73Z"/>
      <path d="M498,150.24v-16.65h3.17v16.65h-3.17ZM499.58,144.74v-2.46h7.72c1.15,0,2.03-.27,2.65-.81.62-.54.93-1.3.93-2.28v-.02c0-.98-.31-1.75-.93-2.28-.62-.54-1.51-.81-2.65-.81h-7.72v-2.49h8.22c1.28,0,2.4.23,3.35.69.95.46,1.68,1.1,2.19,1.94.51.83.77,1.81.77,2.91v.02c0,1.12-.26,2.1-.78,2.94-.52.83-1.25,1.49-2.19,1.96-.94.47-2.06.7-3.34.7h-8.22Z"/>
      <path d="M516.32,150.24v-16.65h14.79v2.51h-11.61v4.48h10.83v2.37h-10.83v4.78h11.61v2.51h-14.79Z"/>
      <path d="M533.73,150.24v-16.65h10.4c1.28,0,2.38.21,3.29.63.91.42,1.61,1.01,2.09,1.78s.73,1.68.73,2.74v.02c0,1.19-.31,2.21-.94,3.04-.63.84-1.52,1.43-2.68,1.79l4.2,6.64h-3.67l-3.76-6.17h-6.48v6.17h-3.18ZM536.92,141.68h6.97c1,0,1.78-.24,2.32-.73.55-.49.83-1.18.83-2.08v-.02c0-.87-.29-1.55-.86-2.04s-1.36-.74-2.36-.74h-6.9v5.62Z"/>
      <path d="M551.57,150.24l8.1-16.65h2.8v2.8h-.96l-6.58,13.84h-3.37ZM555.31,145.92l1.07-2.33h10.24l1.05,2.33h-12.37ZM568.12,150.24l-6.55-13.84v-2.8h1.82l8.1,16.65h-3.37Z"/>
      <path d="M576.29,150.24v-14.06h-6.93v-2.58h17.05v2.58h-6.93v14.06h-3.18Z"/>
      <path d="M588.46,150.24v-16.65h3.18v16.65h-3.18Z"/>
      <path d="M594.64,150.24v-16.65h2.87l13.69,14.4-3.33-2.09h1.36v-12.31h3.11v16.65h-2.88l-13.69-14.45,3.34,2.11h-1.37v12.34h-3.1Z"/>
      <path d="M624.86,150.55c-1.53,0-2.92-.2-4.16-.61-1.25-.4-2.31-.98-3.19-1.74-.88-.75-1.56-1.67-2.03-2.75-.47-1.08-.71-2.28-.71-3.61v-.02c0-1.74.41-3.25,1.24-4.53.83-1.28,2-2.27,3.51-2.97,1.52-.7,3.29-1.04,5.33-1.04,1.66,0,3.14.24,4.45.71,1.3.47,2.38,1.12,3.24,1.95.86.83,1.44,1.79,1.76,2.89l.04.16h-3.28l-.04-.1c-.45-.93-1.21-1.66-2.27-2.19-1.06-.53-2.35-.79-3.85-.79-1.4,0-2.62.24-3.66.7s-1.84,1.15-2.41,2.03c-.57.88-.85,1.94-.85,3.17v.02c0,.94.16,1.78.48,2.53.32.75.79,1.39,1.4,1.93.61.54,1.34.94,2.19,1.22.85.28,1.81.42,2.87.42,1.19,0,2.24-.16,3.13-.49.9-.32,1.62-.79,2.17-1.4.55-.61.9-1.34,1.05-2.19v-.12h-6.31v-2.25h9.47v1.25c0,1.18-.22,2.25-.67,3.21-.45.96-1.09,1.79-1.93,2.48-.84.69-1.85,1.21-3.03,1.58-1.18.36-2.5.54-3.96.54Z"/>
      <path d="M651.14,150.55c-1.78,0-3.31-.19-4.59-.57s-2.29-.94-3.03-1.68-1.18-1.63-1.32-2.68l-.02-.15h3.14l.02.13c.15.53.46.98.95,1.35s1.14.65,1.98.83,1.84.28,3.02.28c1.03,0,1.91-.1,2.63-.29s1.28-.49,1.66-.88c.38-.39.57-.84.57-1.37h0c0-.7-.27-1.21-.81-1.55-.54-.34-1.47-.58-2.8-.71l-4-.35c-2.01-.21-3.5-.69-4.47-1.45-.97-.76-1.46-1.81-1.46-3.14v-.02c0-1.03.32-1.92.96-2.66s1.55-1.33,2.73-1.74c1.18-.41,2.58-.62,4.19-.62s3.11.19,4.33.58c1.21.39,2.17.95,2.88,1.69s1.13,1.63,1.29,2.68v.13s-3.1,0-3.1,0l-.03-.1c-.16-.55-.46-1.01-.9-1.38-.44-.37-1.03-.64-1.77-.83s-1.64-.28-2.7-.28c-1,0-1.85.09-2.55.28-.7.19-1.23.46-1.59.82-.36.36-.54.79-.54,1.3h0c0,.64.28,1.12.83,1.46.55.33,1.44.57,2.68.71l4.04.33c1.38.15,2.52.42,3.4.8s1.54.88,1.97,1.52c.43.63.65,1.41.65,2.32h0c0,1.11-.32,2.05-.97,2.83-.65.78-1.58,1.37-2.8,1.79s-2.7.62-4.43.62Z"/>
      <path d="M667.4,150.24v-6.39l-7.82-10.25h3.63l5.73,7.6h.07l5.76-7.6h3.62l-7.81,10.25v6.39h-3.18Z"/>
      <path d="M687.3,150.55c-1.78,0-3.31-.19-4.59-.57s-2.3-.94-3.03-1.68-1.18-1.63-1.31-2.68l-.02-.15h3.14l.02.13c.15.53.46.98.95,1.35s1.14.65,1.98.83c.83.18,1.84.28,3.02.28,1.03,0,1.91-.1,2.63-.29.72-.2,1.27-.49,1.65-.88.38-.39.57-.84.57-1.37h0c0-.7-.27-1.21-.81-1.55-.54-.34-1.47-.58-2.8-.71l-4-.35c-2.01-.21-3.5-.69-4.47-1.45s-1.46-1.81-1.46-3.14v-.02c0-1.03.32-1.92.96-2.66s1.55-1.33,2.73-1.74c1.18-.41,2.58-.62,4.19-.62s3.11.19,4.33.58c1.22.39,2.18.95,2.88,1.69s1.13,1.63,1.29,2.68v.13s-3.1,0-3.1,0l-.04-.1c-.16-.55-.46-1.01-.9-1.38-.44-.37-1.03-.64-1.76-.83s-1.64-.28-2.7-.28c-1,0-1.85.09-2.55.28s-1.23.46-1.59.82c-.36.36-.54.79-.54,1.3h0c0,.64.27,1.12.82,1.46.55.33,1.44.57,2.68.71l4.04.33c1.38.15,2.52.42,3.4.8.88.38,1.54.88,1.97,1.52.43.63.65,1.41.65,2.32h0c0,1.11-.32,2.05-.97,2.83-.65.78-1.58,1.37-2.8,1.79s-2.7.62-4.44.62Z"/>
      <path d="M703.2,150.24v-14.06h-6.93v-2.58h17.05v2.58h-6.93v14.06h-3.18Z"/>
      <path d="M715.37,150.24v-16.65h14.79v2.51h-11.6v4.48h10.83v2.37h-10.83v4.78h11.6v2.51h-14.79Z"/>
      <path d="M732.77,150.24v-16.65h3.76l6.91,13.13h.07l6.91-13.13h3.77v16.65h-2.94v-12.29h-1.28l2.68-3-7.99,15.28h-2.33l-7.99-15.28,2.67,3h-1.27v12.29h-2.95Z"/>
    </g>
  </g>
  <g id="wendy_name_text">
    <g>
      <path d="M324.28,119.62l-22.55-68.37h21.56l12.51,44.87h.33l15.35-44.87h18l15.3,44.87h.33l12.51-44.87h21.56l-22.55,68.37h-21.18l-14.88-41.98h-.28l-14.83,41.98h-21.18Z"/>
      <path d="M426.43,119.62V51.25h64.01v14.88h-43.26v12.27h40.27v13.41h-40.27v12.93h43.26v14.88h-64.01Z"/>
      <path d="M500.38,119.62V51.25h17.81l48.42,50.22-17.96-9.57h8.53v-40.65h20.18v68.37h-17.77l-48.37-50.74,17.91,9.71h-8.62v41.03h-20.14Z"/>
      <path d="M587.98,119.62V51.25h38.56c8.62,0,15.93,1.3,21.91,3.91,5.99,2.61,10.52,6.42,13.62,11.44,3.09,5.02,4.64,11.15,4.64,18.38v.09c0,7.42-1.56,13.7-4.67,18.83-3.11,5.13-7.66,9.03-13.64,11.7-5.99,2.67-13.27,4-21.87,4h-38.56ZM608.74,104.12h16.39c4.39,0,8.11-.68,11.16-2.04,3.05-1.36,5.37-3.41,6.96-6.16,1.59-2.75,2.39-6.25,2.39-10.52v-.09c0-4.04-.77-7.44-2.3-10.19-1.53-2.75-3.82-4.83-6.87-6.25-3.05-1.42-6.83-2.13-11.35-2.13h-16.39v37.38Z"/>
      <path d="M697.66,119.62v-23.31l-31.55-45.06h22.79l19,28.52h.28l19-28.52h22.79l-31.55,45.06v23.31h-20.75Z"/>
    </g>
  </g>
  <g id="full_diamond">
    <rect x="91.64" y="26.62" width="128.56" height="128.56" transform="translate(-18.61 136.88) rotate(-45)"/>
  </g>
  <g id="outline_diamond">
    <path d="M69.93,160.83L0,90.9,69.93,20.98l69.93,69.93-69.93,69.93ZM22.63,90.9l47.3,47.3,47.3-47.3-47.3-47.3-47.3,47.3Z"/>
  </g>
</svg>