<?xml version="1.0" encoding="UTF-8"?>
<svg id="Layer_2" data-name="Layer 2" xmlns="http://www.w3.org/2000/svg" viewBox="0 0 147.75 35.98">
  <g id="Layer_1-2" data-name="Layer 1">
    <g>
      <path d="M63.51,25l-4.46-13.53h4.27l2.48,8.88h.07l3.04-8.88h3.56l3.03,8.88h.07l2.47-8.88h4.27l-4.46,13.53h-4.19l-2.94-8.31h-.06l-2.93,8.31h-4.19Z"/>
      <path d="M83.73,25v-13.53h12.67v2.94h-8.56v2.43h7.97v2.65h-7.97v2.56h8.56v2.94h-12.67Z"/>
      <path d="M109.6,19.51v-8.04h3.99v13.53h-3.52l-7.73-8.12v8.12h-3.98v-13.53h3.53l7.72,8.04Z"/>
      <path d="M115.7,25v-13.53h7.63c1.71,0,3.15.26,4.34.77,1.18.52,2.08,1.27,2.7,2.26.61.99.92,2.21.92,3.64v.02c0,1.47-.31,2.71-.92,3.73-.62,1.02-1.52,1.79-2.7,2.32-1.18.53-2.63.79-4.33.79h-7.63ZM119.8,21.93h3.24c.87,0,1.6-.13,2.21-.4.6-.27,1.06-.68,1.38-1.22.32-.54.47-1.24.47-2.08v-.02c0-.8-.15-1.47-.45-2.02-.3-.54-.76-.96-1.36-1.24-.6-.28-1.35-.42-2.25-.42h-3.24v7.4Z"/>
      <path d="M137.4,25v-4.61l-6.24-8.92h4.51l3.76,5.64h.06l3.76-5.64h4.51l-6.24,8.92v4.61h-4.11Z"/>
    </g>
    <path d="M48.71,17.99L30.72,0l-8.73,8.73-6.36-6.36L0,17.99l15.62,15.62,6.36-6.36,8.73,8.73,17.99-17.99ZM15.62,29l-11.02-11.02L15.62,6.97l4.06,4.06-6.95,6.95,6.95,6.95-4.06,4.06Z"/>
  </g>
</svg>